<?xml version="1.0" encoding="utf-8"?>
<!-- Generator: Adobe Illustrator 18.1.1, SVG Export Plug-In . SVG Version: 6.00 Build 0)  -->
<svg version="1.1" id="Layer_1" xmlns="http://www.w3.org/2000/svg" xmlns:xlink="http://www.w3.org/1999/xlink" x="0px" y="0px"
	 width="31px" height="32px" viewBox="-242 348.5 31 32" enable-background="new -242 348.5 31 32" xml:space="preserve">
<title>topic-read-locked-mine</title>
<desc>Created with Sketch.</desc>
<g id="Page-1">
	<g id="IMAGESET" transform="translate(-18.000000, -174.000000)">
		<g id="read" transform="translate(17.000000, 110.000000)">
			<g id="topic-read-locked-mine" transform="translate(0.000000, 64.000000)">
				<polygon id="Rectangle-2" fill="none" points="-241.5,348.5 -209.5,348.5 -209.5,380.5 -241.5,380.5 				"/>
				<g id="circle" transform="translate(1.000000, 1.000000)">
					<path id="Fill-1" fill="#0F528F" d="M-211.5,363.5c0,8.3-6.7,15-15,15s-15-6.7-15-15s6.7-15,15-15S-211.5,355.2-211.5,363.5"/>
					<path id="Fill-1-Copy" fill="#187BC6" d="M-212.5,363.5c0,7.7-6.3,14-14,14s-14-6.3-14-14s6.3-14,14-14
						S-212.5,355.8-212.5,363.5"/>
					<path id="Fill-1-Copy-2" fill="#FFFFFF" d="M-213,363.5c0,7.5-6,13.5-13.5,13.5s-13.5-6-13.5-13.5s6-13.5,13.5-13.5
						S-213,356-213,363.5"/>
					
						<linearGradient id="Fill-1-Copy-3_1_" gradientUnits="userSpaceOnUse" x1="-1867.72" y1="13.86" x2="-1867.72" y2="14.86" gradientTransform="matrix(25 0 0 25 46466.5 4.5)">
						<stop  offset="0" style="stop-color:#DBDEE3"/>
						<stop  offset="1" style="stop-color:#FDFDFD"/>
					</linearGradient>
					<path id="Fill-1-Copy-3" fill="url(#Fill-1-Copy-3_1_)" d="M-214,363.5c0,6.9-5.6,12.5-12.5,12.5s-12.5-5.6-12.5-12.5
						s5.6-12.5,12.5-12.5S-214,356.6-214,363.5"/>
				</g>
				<path id="Shape-Copy-21" display="none" fill="#666666" d="M-232.8,372.5h7.3v-1h-8v1H-232.8L-232.8,372.5z M-232.9,369.5h12.4
					v-1h-13v1H-232.9z M-232.8,366.5h15.3v-1h-16v1H-232.8z M-232.8,363.5h15.3v-1h-16v1H-232.8z M-232.9,360.5h12.4v-1h-13v1
					H-232.9L-232.9,360.5z M-232.9,357.5h8.4v-1h-9v1H-232.9L-232.9,357.5z"/>
				<g id="lock-copy-8" transform="translate(21.000000, 19.000000)" display="none">
					<path id="Combined-Shape" display="inline" fill="#FFFFFF" d="M-251.5,350.1v-5.7h1.1v-2.3c0-1.8,1.4-3.2,3.2-3.2h3.3
						c0.7,0,1.4,0.2,1.9,0.6c-0.2,0.8-0.5,1.6-0.8,2.4h0.2v8h-6v-1.3C-249.4,349.3-250.4,349.8-251.5,350.1L-251.5,350.1z"/>
					<path id="Shape-Copy-13" display="inline" fill="#666666" d="M-249.6,347.5v-1h6v1H-249.6z M-249.6,349.5v-1h6v1H-249.6z
						 M-248.6,341.5h4v3h-4V341.5z M-242.7,345v-3.3c0-1.2-1-2.2-2.2-2.2h-3.3c-1.2,0-2.2,1-2.2,2.2v3.3h-1.1v6.5h10V345H-242.7z"/>
				</g>
				<g id="lock-copy-11_1_" transform="translate(21.000000, 19.000000)">
					
						<linearGradient id="Combined-Shape_2_" gradientUnits="userSpaceOnUse" x1="-293.1015" y1="341.9" x2="-281.5015" y2="341.9" gradientTransform="matrix(1 0 0 1 40 3)">
						<stop  offset="0" style="stop-color:#303030"/>
						<stop  offset="0.55" style="stop-color:#2E2E2E"/>
						<stop  offset="0.55" style="stop-color:#FFF42A"/>
					</linearGradient>
					<path id="Combined-Shape_3_" display="none" fill="url(#Combined-Shape_2_)" d="M-252.9,344.8h1.4v-3c0-2.3,1.8-4.1,4.1-4.1
						h4.3c0.9,0,1.8,2.8,1.4,3.9h0.3v10.3h-7.7v-1.7c-1.2,0.8-2.5,1.4-3.9,1.9v-7.4h0.1L-252.9,344.8L-252.9,344.8z"/>
					
						<linearGradient id="Shape-Copy-13_1_" gradientUnits="userSpaceOnUse" x1="-266.4" y1="356.2" x2="-266.4" y2="371.7" gradientTransform="matrix(1 0 0 -1 20 709.5)">
						<stop  offset="0" style="stop-color:#E9B000"/>
						<stop  offset="0.545" style="stop-color:#FFF42A"/>
						<stop  offset="0.545" style="stop-color:#848476"/>
						<stop  offset="1" style="stop-color:#363636"/>
					</linearGradient>
					<path id="Shape-Copy-13_2_" fill="url(#Shape-Copy-13_1_)" d="M-250.4,348.1v-1.3h7.7v1.3H-250.4z M-250.4,350.7v-1.3h7.7v1.3
						H-250.4z M-249.1,340.3h5.2v3.9h-5.2V340.3z M-241.6,344.9v-4.3c0-1.5-1.3-2.8-2.8-2.8h-4.3c-1.5,0-2.8,1.3-2.8,2.8v4.3h-1.4
						v8.4h12.9v-8.4H-241.6z"/>
				</g>
				<g id="star-copy-14" transform="translate(19.000000, 0.000000)">
					<path id="Combined-Shape_1_" fill="#FFFFFF" d="M-237.6,351.2c3.4,1.8,6.1,4.8,7.3,8.5l-3.2-1.8l-4.4,2.4l0.8-5.2l-3.5-3.6
						L-237.6,351.2z"/>
					<polygon id="Path" fill="#0F528F" points="-233.5,356.8 -230.4,358.5 -231,354.9 -228.5,352.3 -232,351.8 -233.5,348.5 
						-235,351.8 -238.5,352.3 -236,354.9 -236.6,358.5 					"/>
				</g>
			</g>
		</g>
	</g>
</g>
<g id="Layer_2" opacity="0.33">
	<path fill="#FFFFFF" d="M-221.6,359.1c0,0-2.2,7.3-11.3,13.1v-8.4h1.4v-4.5c0,0,0.1-2.2,2.4-2.6h5
		C-223.9,356.7-221.8,356.9-221.6,359.1"/>
</g>
</svg>
