<?xml version="1.0" encoding="utf-8"?>
<!-- Generator: Adobe Illustrator 18.1.1, SVG Export Plug-In . SVG Version: 6.00 Build 0)  -->
<svg version="1.1" id="Layer_1" xmlns="http://www.w3.org/2000/svg" xmlns:xlink="http://www.w3.org/1999/xlink" x="0px" y="0px"
	 width="31px" height="31px" viewBox="-242 349.5 31 31" enable-background="new -242 349.5 31 31" xml:space="preserve">
<title>topic-unread-mine</title>
<desc>Created with Sketch.</desc>
<g id="Page-1">
	<g id="IMAGESET" transform="translate(-146.000000, -238.000000)">
		<g id="unread" transform="translate(145.000000, 110.000000)">
			<g id="topic-unread-mine" transform="translate(0.000000, 128.000000)">
				<polygon id="Rectangle-2" fill="none" points="-242,349.5 -210,349.5 -210,381.5 -242,381.5 				"/>
				<g id="circle" transform="translate(1.000000, 1.000000)">
					<path id="Fill-1" fill="#0F528F" d="M-212,364.5c0,8.3-6.7,15-15,15s-15-6.7-15-15c0-8.3,6.7-15,15-15S-212,356.2-212,364.5"/>
					<path id="Fill-1-Copy" fill="#187BC6" d="M-213,364.5c0,7.7-6.3,14-14,14s-14-6.3-14-14c0-7.7,6.3-14,14-14
						S-213,356.8-213,364.5"/>
					<path id="Fill-1-Copy-2" fill="#FFFFFF" d="M-213.5,364.5c0,7.5-6,13.5-13.5,13.5s-13.5-6-13.5-13.5c0-7.5,6-13.5,13.5-13.5
						S-213.5,357-213.5,364.5"/>
					
						<linearGradient id="Fill-1-Copy-3_1_" gradientUnits="userSpaceOnUse" x1="-473.82" y1="715.08" x2="-473.82" y2="714.08" gradientTransform="matrix(25 0 0 -25 11618.5 18229)">
						<stop  offset="0" style="stop-color:#DBDEE3"/>
						<stop  offset="1" style="stop-color:#FDFDFD"/>
					</linearGradient>
					<path id="Fill-1-Copy-3" fill="url(#Fill-1-Copy-3_1_)" d="M-214.5,364.5c0,6.9-5.6,12.5-12.5,12.5s-12.5-5.6-12.5-12.5
						c0-6.9,5.6-12.5,12.5-12.5S-214.5,357.6-214.5,364.5"/>
				</g>
				<path id="Shape-Copy-19" display="none" fill="#BC2A4D" d="M-233.3,373.5h7.3v-1h-8v1H-233.3L-233.3,373.5z M-233.3,370.5h15.3
					v-1h-16v1H-233.3z M-233.3,367.5h15.3v-1h-16v1H-233.3z M-233.3,364.5h15.3v-1h-16v1H-233.3z M-233.4,361.5h12.4v-1h-13v1
					H-233.4L-233.4,361.5z M-233.4,358.5h8.4v-1h-9v1H-233.4L-233.4,358.5z"/>
				<linearGradient id="SVGID_1_" gradientUnits="userSpaceOnUse" x1="-226.2905" y1="358.5797" x2="-223.8829" y2="372.2334">
					<stop  offset="0" style="stop-color:#00AA0F"/>
					<stop  offset="1" style="stop-color:#0D6A00"/>
				</linearGradient>
				<path fill="url(#SVGID_1_)" d="M-232.5,361.9c-1,1.2-2,2.4-3.1,3.6c3.1,2.4,6.2,4.8,9.3,7.1c3.6-4,7.3-8,10.9-12.1
					c-1.3-1.1-2.6-2.2-3.9-3.3c-2.4,3.1-4.8,6.2-7.2,9.3C-228.5,365-230.5,363.5-232.5,361.9z"/>
				<g id="star-copy-26" transform="translate(19.000000, 0.000000)">
					<path id="Combined-Shape" fill="#FFFFFF" d="M-238.1,352.2c3.4,1.8,6.1,4.8,7.3,8.5l-3.2-1.8l-4.4,2.4l0.8-5.2l-3.5-3.6
						L-238.1,352.2z"/>
					<polygon id="Path" fill="#0F528F" points="-234,357.8 -230.9,359.5 -231.5,355.9 -229,353.3 -232.5,352.8 -234,349.5 
						-235.5,352.8 -239,353.3 -236.5,355.9 -237.1,359.5 					"/>
				</g>
			</g>
		</g>
	</g>
</g>
</svg>
