<?xml version="1.0" encoding="utf-8"?>
<!-- Generator: Adobe Illustrator 18.1.1, SVG Export Plug-In . SVG Version: 6.00 Build 0)  -->
<svg version="1.1" id="Layer_1" xmlns="http://www.w3.org/2000/svg" xmlns:xlink="http://www.w3.org/1999/xlink" x="0px" y="0px"
	 width="30px" height="30px" viewBox="-242 349.5 30 30" enable-background="new -242 349.5 30 30" xml:space="preserve">
<title>topic-moved</title>
<desc>Created with Sketch.</desc>
<g id="Page-1">
	<g id="IMAGESET" transform="translate(-18.000000, -303.000000)">
		<g id="read" transform="translate(17.000000, 110.000000)">
			<g id="topic-moved" transform="translate(0.000000, 192.000000)">
				<polygon id="Rectangle-2" fill="none" points="-242,349.5 -210,349.5 -210,381.5 -242,381.5 				"/>
				<g id="circle" transform="translate(1.000000, 1.000000)">
					<path id="Fill-1" fill="#515151" d="M-212,364.5c0,8.3-6.7,15-15,15s-15-6.7-15-15s6.7-15,15-15S-212,356.2-212,364.5"/>
					<path id="Fill-1-Copy" fill="#828282" d="M-213,364.5c0,7.7-6.3,14-14,14s-14-6.3-14-14s6.3-14,14-14S-213,356.8-213,364.5"/>
					<path id="Fill-1-Copy-2" fill="#FFFFFF" d="M-213.5,364.5c0,7.5-6,13.5-13.5,13.5s-13.5-6-13.5-13.5s6-13.5,13.5-13.5
						S-213.5,357-213.5,364.5"/>
					
						<linearGradient id="Fill-1-Copy-3_1_" gradientUnits="userSpaceOnUse" x1="-1403.1" y1="715.08" x2="-1403.1" y2="714.08" gradientTransform="matrix(25 0 0 -25 34850.5 18229)">
						<stop  offset="0" style="stop-color:#DBDEE3"/>
						<stop  offset="1" style="stop-color:#FDFDFD"/>
					</linearGradient>
					<path id="Fill-1-Copy-3" fill="url(#Fill-1-Copy-3_1_)" d="M-214.5,364.5c0,6.9-5.6,12.5-12.5,12.5s-12.5-5.6-12.5-12.5
						s5.6-12.5,12.5-12.5S-214.5,357.6-214.5,364.5"/>
				</g>
				<g id="Group-2" transform="translate(8.000000, 8.000000)" display="none">
					<path id="Shape" fill="#666666" d="M-241.2,365.5h9.2v-1h-10v1H-241.2L-241.2,365.5z M-241.3,362.5h15.3v-1h-16v1H-241.3z
						 M-229.8,359.5h3.8v-1h-4v1H-229.8z M-229.8,356.5h3.8v-1h-4v1H-229.8L-229.8,356.5z"/>
					
						<linearGradient id="Shape_2_" gradientUnits="userSpaceOnUse" x1="-237.662" y1="371.7316" x2="-244.3171" y2="360.2046" gradientTransform="matrix(1 0 0 -1 7 722.5)">
						<stop  offset="0" style="stop-color:#11AA00"/>
						<stop  offset="1" style="stop-color:#005500"/>
					</linearGradient>
					<polygon id="Shape_1_" display="inline" fill="url(#Shape_2_)" points="-240.4,360.2 -237,356.5 -229,364.8 -227.1,362.9 
						-230.9,359 -235.1,354.5 -231.6,350.7 -231.6,350.2 -240.9,350.2 -240.9,360.2 					"/>
				</g>
				<g>
					
						<linearGradient id="SVGID_1_" gradientUnits="userSpaceOnUse" x1="-233.6164" y1="365.4388" x2="-218.3379" y2="365.4388" gradientTransform="matrix(0.7071 0.7071 0.7071 -0.7071 -324.5914 783.6329)">
						<stop  offset="0" style="stop-color:#00AA0F"/>
						<stop  offset="1" style="stop-color:#0D6A00"/>
					</linearGradient>
					<path fill="url(#SVGID_1_)" d="M-225.1,375.3l3.2-3.2c0.1-0.1,0.2-0.3,0.2-0.5c0-0.2-0.1-0.3-0.2-0.5l-3.2-3.2
						c-0.2-0.2-0.4-0.2-0.7-0.1c-0.3,0.1-0.4,0.3-0.4,0.6l0,1.9c-1.3-0.1-2.5-0.5-3.4-1.5c-0.5-0.5-0.9-1-1.1-1.7
						c-0.3-0.6-0.4-1.3-0.4-1.9c0-0.6,0.1-1.3,0.4-1.9c0.3-0.6,0.6-1.2,1.1-1.7c0.5-0.5,1-0.9,1.7-1.1c0.6-0.3,1.3-0.4,1.9-0.4
						c0.6,0,1.3,0.1,1.9,0.4c0.6,0.3,1.2,0.6,1.7,1.1c0.6,0.6,1,1.2,1.2,1.9c0.3,0.7,0.3,1.5,0.2,2.3c0,0.1,0,0.2,0.1,0.2
						c0.1,0.1,0.1,0.1,0.2,0.1l1.9,0c0.1,0,0.2,0,0.2-0.1c0.1-0.1,0.1-0.1,0.1-0.2c0.1-1.1,0-2.2-0.4-3.3c-0.4-1.1-1-2-1.8-2.8
						c-0.7-0.7-1.6-1.3-2.5-1.7c-1-0.4-1.9-0.6-2.9-0.6c-1,0-1.9,0.2-2.9,0.6c-1,0.4-1.8,0.9-2.5,1.7c-0.7,0.7-1.3,1.6-1.7,2.5
						c-0.4,1-0.6,1.9-0.6,2.9c0,1,0.2,1.9,0.6,2.9c0.4,1,0.9,1.8,1.7,2.5c0.7,0.7,1.5,1.2,2.4,1.6c0.9,0.4,1.8,0.6,2.8,0.6l0,1.8
						c0,0.3,0.1,0.5,0.4,0.6C-225.5,375.6-225.3,375.5-225.1,375.3z"/>
				</g>
			</g>
		</g>
	</g>
</g>
</svg>
