<?xml version="1.0" encoding="utf-8"?>
<!-- Generator: Adobe Illustrator 18.1.1, SVG Export Plug-In . SVG Version: 6.00 Build 0)  -->
<svg version="1.1" id="Layer_1" xmlns="http://www.w3.org/2000/svg" xmlns:xlink="http://www.w3.org/1999/xlink" x="0px" y="0px"
	 width="30px" height="30px" viewBox="-242 349.5 30 30" enable-background="new -242 349.5 30 30" xml:space="preserve">
<title>topic-unread</title>
<desc>Created with Sketch.</desc>
<g id="Page-1">
	<g id="IMAGESET" transform="translate(-146.000000, -271.000000)">
		<g id="unread" transform="translate(145.000000, 110.000000)">
			<g id="topic-unread" transform="translate(0.000000, 160.000000)">
				<polygon id="Rectangle-2" fill="none" points="-242,349.5 -210,349.5 -210,381.5 -242,381.5 				"/>
				<g id="circle" transform="translate(1.000000, 1.000000)">
					<path id="Fill-1" fill="#0F528F" d="M-212,364.5c0,8.3-6.7,15-15,15s-15-6.7-15-15c0-8.3,6.7-15,15-15S-212,356.2-212,364.5"/>
					<path id="Fill-1-Copy" fill="#187BC6" d="M-213,364.5c0,7.7-6.3,14-14,14s-14-6.3-14-14c0-7.7,6.3-14,14-14
						S-213,356.8-213,364.5"/>
					<path id="Fill-1-Copy-2" fill="#FFFFFF" d="M-213.5,364.5c0,7.5-6,13.5-13.5,13.5s-13.5-6-13.5-13.5c0-7.5,6-13.5,13.5-13.5
						S-213.5,357-213.5,364.5"/>
					
						<linearGradient id="Fill-1-Copy-3_1_" gradientUnits="userSpaceOnUse" x1="-473.82" y1="715.04" x2="-473.82" y2="714.04" gradientTransform="matrix(25 0 0 -25 11618.5 18228)">
						<stop  offset="0" style="stop-color:#DBDEE3"/>
						<stop  offset="1" style="stop-color:#FDFDFD"/>
					</linearGradient>
					<path id="Fill-1-Copy-3" fill="url(#Fill-1-Copy-3_1_)" d="M-214.5,364.5c0,6.9-5.6,12.5-12.5,12.5s-12.5-5.6-12.5-12.5
						c0-6.9,5.6-12.5,12.5-12.5S-214.5,357.6-214.5,364.5"/>
				</g>
				<path id="Shape-Copy-18" display="none" fill="#BC2A4D" d="M-233.3,373.5h7.3v-1h-8v1H-233.3L-233.3,373.5z M-233.3,370.5h15.3
					v-1h-16v1H-233.3z M-233.3,367.5h15.3v-1h-16v1H-233.3z M-233.3,364.5h15.3v-1h-16v1H-233.3z M-233.3,361.5h15.3v-1h-16v1
					H-233.3L-233.3,361.5z M-233.4,358.5h8.4v-1h-9v1H-233.4L-233.4,358.5z"/>
				
					<linearGradient id="SVGID_1_" gradientUnits="userSpaceOnUse" x1="-225.7798" y1="372.3222" x2="-223.3722" y2="358.6685" gradientTransform="matrix(1 0 0 -1 -1 731.5)">
					<stop  offset="0" style="stop-color:#00AA0F"/>
					<stop  offset="1" style="stop-color:#0D6A00"/>
				</linearGradient>
				<path fill="url(#SVGID_1_)" d="M-233,362.5c-1,1.2-2,2.4-3.1,3.6c3.1,2.4,6.2,4.8,9.3,7.1c3.6-4,7.3-8,10.9-12.1
					c-1.3-1.1-2.6-2.2-3.9-3.3c-2.4,3.1-4.8,6.2-7.2,9.3C-229,365.6-231,364.1-233,362.5z"/>
			</g>
		</g>
	</g>
</g>
</svg>
