<?xml version="1.0" encoding="utf-8"?>
<!-- Generator: Adobe Illustrator 18.1.1, SVG Export Plug-In . SVG Version: 6.00 Build 0)  -->
<svg version="1.1" id="Layer_1" xmlns="http://www.w3.org/2000/svg" xmlns:xlink="http://www.w3.org/1999/xlink" x="0px" y="0px"
	 width="31px" height="31px" viewBox="-242 349.5 31 31" enable-background="new -242 349.5 31 31" xml:space="preserve">
<title>topic-read-hot-mine</title>
<desc>Created with Sketch.</desc>
<g id="Page-1">
	<g id="IMAGESET" transform="translate(-18.000000, -110.000000)">
		<g id="read" transform="translate(17.000000, 110.000000)">
			<g id="topic-read-hot-mine">
				<polygon id="Rectangle-2" fill="none" points="-242,349.5 -210,349.5 -210,381.5 -242,381.5 				"/>
				<g id="circle" transform="translate(1.000000, 1.000000)">
					<path id="Fill-1" fill="#515151" d="M-212,364.5c0,8.3-6.7,15-15,15s-15-6.7-15-15c0-8.3,6.7-15,15-15S-212,356.2-212,364.5"/>
					<path id="Fill-1-Copy" fill="#828282" d="M-213,364.5c0,7.7-6.3,14-14,14s-14-6.3-14-14c0-7.7,6.3-14,14-14
						S-213,356.8-213,364.5"/>
					<path id="Fill-1-Copy-2" fill="#FFFFFF" d="M-213.5,364.5c0,7.5-6,13.5-13.5,13.5s-13.5-6-13.5-13.5c0-7.5,6-13.5,13.5-13.5
						S-213.5,357-213.5,364.5"/>
					
						<linearGradient id="Fill-1-Copy-3_1_" gradientUnits="userSpaceOnUse" x1="-473.82" y1="715.08" x2="-473.82" y2="714.08" gradientTransform="matrix(25 0 0 -25 11618.5 18229)">
						<stop  offset="0" style="stop-color:#DBDEE3"/>
						<stop  offset="1" style="stop-color:#FDFDFD"/>
					</linearGradient>
					<path id="Fill-1-Copy-3" fill="url(#Fill-1-Copy-3_1_)" d="M-214.5,364.5c0,6.9-5.6,12.5-12.5,12.5s-12.5-5.6-12.5-12.5
						c0-6.9,5.6-12.5,12.5-12.5S-214.5,357.6-214.5,364.5"/>
				</g>
				<linearGradient id="Shape-Copy_1_" gradientUnits="userSpaceOnUse" x1="-226" y1="373.5" x2="-226" y2="357.5">
					<stop  offset="0" style="stop-color:#BF3A00"/>
					<stop  offset="1" style="stop-color:#FF9B2A"/>
				</linearGradient>
				<path id="Shape-Copy" fill="url(#Shape-Copy_1_)" d="M-227,357.5c0.9,2.3,0.4,3.5-0.6,4.5c-1.1,1.1-2.8,1.9-3.9,3.5
					c-1.6,2.1-1.8,6.8,3.8,8c-2.4-1.2-2.9-4.7-0.3-6.9c-0.7,2.1,0.6,3.5,2.1,3c1.5-0.5,2.5,0.5,2.5,1.7c0,0.8-0.4,1.5-1.2,1.9
					c3.7-0.6,5.2-3.6,5.2-5.8c0-2.9-2.7-3.4-1.4-5.8c-1.6,0.1-2.2,1.2-2,2.9c0.1,1.1-1.1,1.9-2,1.4c-0.7-0.4-0.7-1.2-0.1-1.8
					C-223.7,362.7-223.1,359.7-227,357.5L-227,357.5z"/>
				<g id="star-copy-11" transform="translate(19.000000, 0.000000)">
					<path id="Combined-Shape" fill="#FFFFFF" d="M-238.1,352.2c3.4,1.8,6.1,4.8,7.3,8.5l-3.2-1.8l-4.4,2.4l0.8-5.2l-3.5-3.6
						L-238.1,352.2z"/>
					<polygon id="Path" fill="#0F528F" points="-234,357.8 -230.9,359.5 -231.5,355.9 -229,353.3 -232.5,352.8 -234,349.5 
						-235.5,352.8 -239,353.3 -236.5,355.9 -237.1,359.5 					"/>
				</g>
			</g>
		</g>
	</g>
</g>
</svg>
